<svg width="200" height="200" viewBox="0 0 200 200" fill="none" xmlns="http://www.w3.org/2000/svg">
  <!-- 外边框 -->
  <rect x="10" y="10" width="180" height="180" fill="white" stroke="#00C851" stroke-width="2"/>
  
  <!-- 二维码图案 -->
  <!-- 左上角定位点 -->
  <rect x="20" y="20" width="50" height="50" fill="#00C851"/>
  <rect x="30" y="30" width="30" height="30" fill="white"/>
  <rect x="40" y="40" width="10" height="10" fill="#00C851"/>
  
  <!-- 右上角定位点 -->
  <rect x="130" y="20" width="50" height="50" fill="#00C851"/>
  <rect x="140" y="30" width="30" height="30" fill="white"/>
  <rect x="150" y="40" width="10" height="10" fill="#00C851"/>
  
  <!-- 左下角定位点 -->
  <rect x="20" y="130" width="50" height="50" fill="#00C851"/>
  <rect x="30" y="140" width="30" height="30" fill="white"/>
  <rect x="40" y="150" width="10" height="10" fill="#00C851"/>
  
  <!-- 数据模块 -->
  <rect x="80" y="20" width="10" height="10" fill="#00C851"/>
  <rect x="100" y="20" width="10" height="10" fill="#00C851"/>
  <rect x="80" y="40" width="10" height="10" fill="#00C851"/>
  <rect x="110" y="40" width="10" height="10" fill="#00C851"/>
  
  <rect x="20" y="80" width="10" height="10" fill="#00C851"/>
  <rect x="40" y="80" width="10" height="10" fill="#00C851"/>
  <rect x="60" y="80" width="10" height="10" fill="#00C851"/>
  <rect x="80" y="80" width="10" height="10" fill="#00C851"/>
  <rect x="100" y="80" width="10" height="10" fill="#00C851"/>
  <rect x="120" y="80" width="10" height="10" fill="#00C851"/>
  <rect x="140" y="80" width="10" height="10" fill="#00C851"/>
  <rect x="160" y="80" width="10" height="10" fill="#00C851"/>
  <rect x="180" y="80" width="10" height="10" fill="#00C851"/>
  
  <rect x="80" y="100" width="10" height="10" fill="#00C851"/>
  <rect x="120" y="100" width="10" height="10" fill="#00C851"/>
  <rect x="160" y="100" width="10" height="10" fill="#00C851"/>
  
  <rect x="80" y="120" width="10" height="10" fill="#00C851"/>
  <rect x="100" y="120" width="10" height="10" fill="#00C851"/>
  <rect x="140" y="120" width="10" height="10" fill="#00C851"/>
  <rect x="180" y="120" width="10" height="10" fill="#00C851"/>
  
  <rect x="80" y="140" width="10" height="10" fill="#00C851"/>
  <rect x="120" y="140" width="10" height="10" fill="#00C851"/>
  <rect x="140" y="140" width="10" height="10" fill="#00C851"/>
  <rect x="160" y="140" width="10" height="10" fill="#00C851"/>
  
  <rect x="80" y="160" width="10" height="10" fill="#00C851"/>
  <rect x="100" y="160" width="10" height="10" fill="#00C851"/>
  <rect x="120" y="160" width="10" height="10" fill="#00C851"/>
  <rect x="160" y="160" width="10" height="10" fill="#00C851"/>
  <rect x="180" y="160" width="10" height="10" fill="#00C851"/>
  
  <rect x="80" y="180" width="10" height="10" fill="#00C851"/>
  <rect x="120" y="180" width="10" height="10" fill="#00C851"/>
  <rect x="140" y="180" width="10" height="10" fill="#00C851"/>
  <rect x="180" y="180" width="10" height="10" fill="#00C851"/>
</svg>